<svg xmlns="http://www.w3.org/2000/svg" version="1.1" xmlns:xlink="http://www.w3.org/1999/xlink" xmlns:svgjs="http://svgjs.com/svgjs" overflow="visible" viewBox="0 0 568.81 151.4"><g class="signage-logo" opacity="1"><defs id="SvgjsDefs1002"></defs><g id="SvgjsG1008" transform="scale(1.2311688311688311)" opacity="1"><g id="SvgjsG1009" class="j60QwZdxR" transform="translate(-11.569904924590395, -31.015270355051868) scale(1.8500012814913833)" light-content="false" non-strokable="false" fill="#2563eb"><path d="M83.773 26.949H69.824c-.633-5.52-4.394-10.176-10.234-10.184H40.41c-4.68 0-8.766 3.309-9.715 7.832l-.52 2.352H16.2c-5.485 0-9.946 4.46-9.946 9.945V73.26c0 5.5 4.461 9.976 9.946 9.976h8.246a3.132 3.132 0 1 0 0-6.265H16.2c-2.028 0-3.68-1.664-3.68-3.707V36.898a3.683 3.683 0 0 1 3.68-3.68h16.496a3.134 3.134 0 0 0 3.058-2.457l1.067-4.844c.351-1.672 1.86-2.882 3.59-2.882h19.18c1.71 0 3.222 1.226 3.593 2.914l1.063 4.808a3.13 3.13 0 0 0 3.058 2.457H83.77c2.043 0 3.707 1.649 3.707 3.68v36.367a3.71 3.71 0 0 1-3.707 3.707h-8.214c-4.13.062-4.11 6.207 0 6.266h8.214c5.504 0 9.977-4.477 9.977-9.977V36.89c0-5.484-4.473-9.945-9.977-9.945z"></path><path d="M49.992 36.133c-12.926 0-23.441 10.516-23.441 23.441 1.23 31.078 45.656 31.066 46.883 0 0-12.926-10.516-23.441-23.441-23.441zm0 40.617c-9.469 0-17.172-7.707-17.172-17.176.809-22.73 33.547-22.723 34.348 0 0 9.469-7.707 17.176-17.176 17.176z"></path><path d="M49.996 48.629c-6.035 0-10.945 4.91-10.945 10.945a3.132 3.132 0 1 0 6.266 0 4.682 4.682 0 0 1 4.68-4.676c4.117-.066 4.12-6.199 0-6.265z"></path></g><g id="SvgjsG1010" class="text" transform="translate(283.9514638031029, 53.61761863389145) scale(1)" light-content="false" fill="#1f2937"><path d="M-82.61 0.06C-80.53 0.39 -78.46 0.55 -76.39 0.55C-72.86 0.55 -69.84 0.07 -67.32 -0.88C-64.81 -1.84 -62.89 -3.24 -61.58 -5.08C-60.27 -6.92 -59.61 -9.13 -59.61 -11.72C-59.61 -13.8 -60.06 -15.59 -60.96 -17.1C-61.86 -18.6 -63.28 -19.88 -65.24 -20.92C-67.2 -21.96 -69.77 -22.79 -72.95 -23.41L-75.56 -23.9C-77.73 -24.34 -79.46 -24.88 -80.73 -25.52C-82.01 -26.15 -82.92 -26.95 -83.48 -27.92C-84.04 -28.88 -84.32 -30.09 -84.32 -31.54C-84.32 -34.04 -83.35 -35.96 -81.41 -37.29C-79.48 -38.62 -76.51 -39.29 -72.52 -39.29C-68.7 -39.29 -65.05 -38.76 -61.58 -37.7L-61.58 -41.86C-64.98 -42.87 -68.63 -43.37 -72.55 -43.37C-76.21 -43.37 -79.29 -42.89 -81.79 -41.92C-84.29 -40.96 -86.16 -39.58 -87.42 -37.78C-88.67 -35.99 -89.3 -33.84 -89.3 -31.33C-89.3 -28.17 -88.29 -25.64 -86.29 -23.74C-84.28 -21.84 -81.11 -20.46 -76.77 -19.62L-74.17 -19.12C-71.79 -18.66 -69.92 -18.12 -68.54 -17.49C-67.16 -16.86 -66.15 -16.07 -65.52 -15.12C-64.88 -14.16 -64.56 -12.95 -64.56 -11.49C-64.56 -6.18 -68.48 -3.53 -76.31 -3.53C-78.22 -3.53 -80.25 -3.7 -82.4 -4.04C-84.55 -4.37 -86.62 -4.87 -88.6 -5.53L-88.6 -1.36C-86.69 -0.74 -84.7 -0.27 -82.61 0.06Z M-13.55 -42.82L-13.55 -6.89L-40.43 -42.82L-45.52 -42.82L-45.52 0L-40.81 0L-40.81 -35.93L-13.93 0L-8.84 0L-8.84 -42.82Z M40.4 0L45.44 0L28.02 -42.82L21.13 -42.82L3.72 0L8.67 0L14.22 -13.86L34.85 -13.86ZM15.84 -17.85L24.55 -39.52L33.23 -17.85Z M57.99 -42.04L57.99 0L62.94 0L62.94 -14.35C65.53 -14.14 67.79 -14.03 69.74 -14.03C76.34 -14.03 81.21 -15.27 84.36 -17.75C87.52 -20.23 89.1 -23.89 89.1 -28.73C89.1 -33.71 87.54 -37.37 84.42 -39.74C81.31 -42.1 76.67 -43.28 70.52 -43.28C68.32 -43.28 66.23 -43.18 64.26 -42.98C62.28 -42.78 60.19 -42.46 57.99 -42.04ZM78.1 -19.04C75.98 -18.25 73.2 -17.85 69.77 -17.85C67.42 -17.85 65.14 -18 62.94 -18.28L62.94 -38.8C65.37 -39.24 68 -39.46 70.84 -39.46C75.35 -39.46 78.71 -38.59 80.91 -36.86C83.11 -35.12 84.21 -32.4 84.21 -28.7C84.21 -26.23 83.72 -24.2 82.74 -22.61C81.77 -21.02 80.22 -19.83 78.1 -19.04Z"></path></g><g id="SvgjsG1011" class="text" transform="translate(327.5514546478295, 112.17544550250096) scale(1)" light-content="false" fill="#6b7280"><path d="M-131.89 -1.42C-127.68 -0.11 -123.1 0.55 -118.14 0.55C-114.25 0.55 -110.89 0.02 -108.06 -1.04C-105.23 -2.1 -103.07 -3.64 -101.56 -5.64C-100.06 -7.65 -99.31 -10.03 -99.31 -12.79C-99.31 -14.99 -99.78 -16.89 -100.71 -18.5C-101.65 -20.11 -103.15 -21.48 -105.22 -22.61C-107.3 -23.74 -110.03 -24.63 -113.43 -25.29L-116.99 -25.98C-118.49 -26.29 -119.66 -26.64 -120.5 -27.02C-121.34 -27.41 -121.93 -27.89 -122.28 -28.45C-122.63 -29.02 -122.8 -29.73 -122.8 -30.58C-122.8 -32.16 -122.04 -33.37 -120.53 -34.21C-119.02 -35.05 -116.5 -35.47 -112.99 -35.47C-110.99 -35.47 -108.98 -35.33 -106.96 -35.05C-104.95 -34.77 -103.16 -34.39 -101.59 -33.91L-101.59 -41.98C-105.05 -42.91 -108.92 -43.37 -113.22 -43.37C-119.72 -43.37 -124.63 -42.24 -127.94 -39.97C-131.24 -37.7 -132.9 -34.46 -132.9 -30.23C-132.9 -26.86 -131.85 -24.16 -129.76 -22.15C-127.67 -20.13 -124.3 -18.67 -119.65 -17.76L-116.12 -17.07C-114.38 -16.74 -113.03 -16.38 -112.07 -15.97C-111.1 -15.57 -110.42 -15.07 -110.01 -14.49C-109.61 -13.92 -109.41 -13.17 -109.41 -12.27C-109.41 -10.65 -110.07 -9.42 -111.4 -8.59C-112.73 -7.76 -114.95 -7.35 -118.06 -7.35C-120.2 -7.35 -122.55 -7.54 -125.12 -7.91C-127.68 -8.29 -129.94 -8.8 -131.89 -9.46Z M-76.71 -7.67L-76.71 -18.05L-55.85 -18.05L-55.85 -25.72L-76.71 -25.72L-76.71 -35.15L-52.81 -35.15L-52.81 -42.82L-86.84 -42.82L-86.84 0L-52.53 0L-52.53 -7.67Z M-39.56 0L-6.81 0L-6.81 -8.04L-29.32 -8.04L-29.32 -42.82L-39.56 -42.82Z M14.05 -7.67L14.05 -18.05L34.91 -18.05L34.91 -25.72L14.05 -25.72L14.05 -35.15L37.94 -35.15L37.94 -42.82L3.92 -42.82L3.92 0L38.23 0L38.23 -7.67Z M55.07 -4.87C59.41 -1.26 65.74 0.55 74.05 0.55C77.89 0.55 81.52 0.1 84.93 -0.81L84.93 -9.06C81.59 -8.17 78.18 -7.72 74.69 -7.72C69.5 -7.72 65.64 -8.83 63.1 -11.05C60.56 -13.27 59.3 -16.73 59.3 -21.44C59.3 -26.07 60.59 -29.5 63.19 -31.74C65.78 -33.98 69.79 -35.09 75.21 -35.09C78.53 -35.09 81.77 -34.75 84.93 -34.05L84.93 -42.27C81.65 -43 78.15 -43.37 74.43 -43.37C68.87 -43.37 64.17 -42.51 60.31 -40.79C56.45 -39.08 53.53 -36.57 51.54 -33.29C49.56 -30 48.56 -26.01 48.56 -21.32C48.56 -13.97 50.73 -8.49 55.07 -4.87Z M109.03 0L119.27 0L119.27 -34.78L134.46 -34.78L134.46 -42.82L93.84 -42.82L93.84 -34.78L109.03 -34.78Z"></path></g></g></g></svg>